<?xml version="1.0" standalone="no"?>
<!DOCTYPE svg PUBLIC "-//W3C//DTD SVG 20010904//EN"
 "http://www.w3.org/TR/2001/REC-SVG-20010904/DTD/svg10.dtd">
<svg version="1.0" xmlns="http://www.w3.org/2000/svg"
 width="1254.000000pt" height="1254.000000pt" viewBox="0 0 1254.000000 1254.000000"
 preserveAspectRatio="xMidYMid meet">

<g transform="translate(0.000000,1254.000000) scale(0.100000,-0.100000)"
fill="#000000" stroke="none">
<path d="M0 6270 l0 -6270 6270 0 6270 0 0 6270 0 6270 -6270 0 -6270 0 0
-6270z m6785 5695 c44 -3 121 -11 170 -19 50 -8 115 -18 145 -21 123 -15 383
-65 525 -102 33 -8 71 -17 85 -20 51 -9 329 -93 440 -133 63 -23 126 -45 140
-50 29 -9 205 -81 330 -135 349 -149 836 -453 1170 -729 308 -253 626 -585
845 -881 33 -44 63 -82 66 -85 25 -20 264 -396 368 -580 42 -73 231 -454 231
-465 0 -3 9 -24 20 -48 24 -53 99 -248 133 -347 113 -326 213 -738 252 -1040
2 -19 9 -69 14 -110 41 -309 39 -916 -4 -1275 -10 -78 -36 -250 -41 -266 -2
-9 -7 -34 -10 -55 -2 -21 -9 -54 -14 -74 -5 -19 -11 -47 -14 -62 -36 -205
-204 -744 -300 -963 -8 -16 -33 -75 -57 -130 -109 -252 -299 -594 -477 -855
-77 -113 -226 -317 -241 -330 -3 -3 -24 -27 -46 -55 -755 -952 -1964 -1681
-3190 -1924 -119 -23 -330 -58 -400 -65 -146 -16 -307 -27 -312 -22 -3 3 17
36 44 73 85 118 161 261 188 357 l17 59 14 -39 c24 -67 45 -175 51 -267 3 -48
9 -84 13 -80 4 4 24 54 43 110 42 119 53 220 37 353 -18 150 -61 320 -94 374
-8 11 -32 57 -55 101 -22 44 -41 73 -40 65 0 -8 6 -26 14 -40 20 -35 19 -49
-5 -43 -17 4 -20 0 -20 -24 0 -34 -51 -250 -82 -343 -66 -205 -212 -439 -385
-619 l-52 -54 -203 7 c-177 5 -294 13 -480 31 -61 6 -385 61 -473 81 -150 34
-346 85 -434 114 -51 16 -96 30 -101 30 -4 0 -24 7 -43 15 l-36 15 51 82 c155
249 229 513 229 817 1 400 -89 736 -335 1254 l-56 118 48 -40 c101 -85 243
-247 325 -369 62 -92 135 -235 167 -327 l21 -60 -5 116 c-13 268 -95 540 -231
767 -72 122 -138 243 -133 247 2 2 37 11 78 19 84 18 241 90 347 160 75 49
223 182 274 247 l32 40 -73 -47 c-89 -57 -185 -92 -288 -104 l-77 -9 73 3 c39
2 72 0 72 -5 0 -5 -6 -6 -12 -4 -7 3 -26 -6 -42 -20 -16 -14 -25 -25 -20 -25
6 0 15 5 22 12 9 9 15 9 24 0 13 -13 4 -17 -114 -54 -62 -20 -93 -23 -208 -22
-114 2 -149 6 -224 28 -90 27 -215 81 -251 109 -18 14 -16 15 40 22 145 18
302 81 415 167 30 23 49 34 42 26 -17 -22 -5 -53 15 -36 11 9 16 9 23 -2 4 -7
23 -13 42 -12 42 1 80 -24 58 -38 -8 -5 -10 -10 -3 -10 27 0 213 156 304 255
72 79 269 381 269 412 0 4 -19 -12 -42 -37 -22 -25 -37 -36 -33 -25 4 11 14
45 20 75 7 30 26 107 43 170 16 63 40 165 52 225 12 61 29 135 36 166 23 92
17 89 -47 -26 -146 -262 -333 -508 -481 -636 -73 -63 -199 -149 -276 -188 -53
-27 -54 -36 -2 -15 21 9 44 14 51 12 6 -2 -29 -17 -77 -33 -81 -27 -100 -30
-214 -29 -80 1 -141 7 -169 16 l-45 15 30 7 c57 14 190 87 275 150 138 104
228 203 309 341 l23 40 -29 -26 c-16 -14 -59 -52 -95 -85 -100 -88 -201 -143
-329 -178 -25 -7 -25 -7 -5 11 39 35 132 149 173 212 23 35 42 58 42 51 0 -34
48 37 110 163 68 137 168 422 203 582 25 109 58 363 58 440 0 39 7 171 16 295
9 124 17 284 19 355 1 72 7 175 13 230 5 55 13 154 17 220 3 66 10 145 14 175
7 49 6 71 -3 59 -2 -2 -26 -54 -54 -114 -109 -231 -231 -560 -263 -707 -14
-61 -30 -77 -30 -30 0 37 -36 230 -49 262 -8 22 -10 18 -10 -28 -1 -56 -22
-208 -46 -331 -21 -104 -106 -424 -117 -436 -4 -5 -8 11 -8 37 0 68 -28 320
-47 427 -11 60 -24 102 -35 113 -10 10 -18 24 -18 31 0 6 9 1 20 -13 l20 -25
0 31 c0 17 -11 85 -24 151 -14 65 -38 201 -55 301 -17 100 -46 241 -65 315
-19 73 -39 168 -45 211 -21 151 -10 338 25 429 6 15 -5 13 -62 -16 -115 -57
-182 -75 -320 -87 -149 -12 -207 -22 -317 -51 -52 -14 -75 -25 -65 -30 27 -15
154 -40 307 -59 151 -20 228 -33 237 -43 2 -2 -31 -7 -74 -11 -142 -11 -286
-63 -391 -140 -78 -57 -203 -197 -189 -211 3 -3 21 1 40 10 20 8 68 23 107 34
l71 20 -81 -76 c-86 -81 -150 -164 -193 -251 -27 -53 -28 -81 -3 -51 37 46
230 164 324 199 29 11 91 30 139 44 l87 24 -55 -56 c-113 -118 -179 -231 -197
-343 -14 -83 -14 -274 0 -359 20 -125 104 -332 253 -626 31 -61 56 -117 56
-125 0 -8 9 -39 19 -69 19 -56 54 -214 66 -305 12 -87 6 -336 -11 -435 -52
-305 -176 -564 -340 -708 -74 -64 -135 -95 -200 -100 -87 -7 -113 8 -218 127
-117 132 -295 296 -452 417 -112 86 -244 204 -344 309 -106 111 -307 342 -345
396 -20 29 -35 37 -35 19 0 -6 13 -40 29 -75 l30 -65 -66 57 c-134 119 -225
245 -239 332 -4 22 -10 38 -15 35 -15 -9 -10 -66 12 -150 37 -144 158 -306
388 -523 115 -107 131 -127 127 -150 -2 -14 -5 -51 -7 -81 -2 -55 -2 -55 -9
-15 -4 22 -8 33 -9 25 -1 -13 -2 -13 -11 0 -9 13 -11 13 -20 0 -6 -8 -8 -23
-6 -33 2 -10 0 -14 -7 -10 -6 4 -8 0 -4 -10 3 -9 3 -16 -1 -16 -25 4 -35 -2
-24 -13 8 -8 8 -17 1 -30 -6 -11 -8 -22 -5 -26 3 -3 6 0 6 7 0 7 4 10 9 7 5
-3 7 -15 4 -26 -3 -11 0 -20 6 -20 6 0 11 -10 10 -22 0 -13 -3 -17 -6 -11 -3
10 -8 9 -20 -3 -13 -12 -13 -20 -4 -40 6 -14 8 -23 3 -20 -4 2 -14 1 -22 -4
-12 -7 -12 -11 1 -26 12 -15 12 -17 0 -9 -11 6 -13 4 -7 -10 3 -10 0 -27 -7
-39 -44 -69 -59 -99 -49 -92 13 8 96 159 107 195 6 20 4 23 -10 18 -11 -5 -15
-3 -12 5 2 7 11 12 19 10 9 -1 19 11 26 30 10 28 11 29 7 5 -10 -53 -46 -136
-95 -218 -28 -45 -50 -84 -50 -86 0 -19 198 48 286 98 59 33 66 35 58 14 -4
-8 -10 -13 -15 -10 -10 7 -289 -275 -289 -292 0 -6 -5 -15 -11 -18 -5 -4 -8
-12 -6 -18 2 -7 0 -20 -4 -29 -6 -10 -5 -19 1 -23 5 -3 10 -11 10 -16 0 -6 -4
-7 -10 -4 -11 7 -2 -23 13 -43 6 -8 5 -12 -4 -13 -8 -1 -3 -4 11 -8 17 -5 24
-14 23 -27 -1 -14 8 -9 34 21 l35 40 -31 -47 c-28 -43 -67 -83 -46 -47 8 12 6
12 -8 0 -18 -15 -23 -26 -7 -16 15 9 12 -11 -3 -24 -8 -6 -18 -7 -22 -3 -5 4
-5 2 -2 -5 7 -11 -45 -80 -85 -113 -39 -31 -17 -30 82 5 145 50 250 98 318
143 15 10 61 42 103 70 l76 51 -20 -55 c-11 -30 -22 -53 -24 -51 -2 3 1 17 7
32 6 15 8 30 6 32 -8 9 -66 -38 -60 -48 4 -6 11 -6 20 2 8 7 14 7 14 1 0 -14
-34 -25 -38 -13 -2 6 -8 11 -13 11 -4 0 -6 -6 -3 -13 2 -7 -8 -20 -23 -29 -36
-21 -112 -95 -159 -156 -49 -61 -148 -156 -269 -257 -33 -27 -73 -64 -90 -81
-37 -39 -167 -152 -257 -224 -38 -29 -68 -58 -68 -64 0 -6 14 -29 30 -50 17
-22 30 -44 30 -50 0 -6 -43 54 -95 134 -53 80 -93 151 -90 158 3 7 1 10 -5 7
-13 -8 -31 30 -24 52 4 12 3 14 -3 6 -12 -17 -75 89 -67 114 5 14 4 15 -4 4
-22 -31 -278 524 -381 824 -118 345 -221 759 -248 995 -2 25 -11 77 -19 115
-25 123 -37 446 -29 805 9 379 10 424 18 436 2 5 8 43 11 84 12 141 64 419
122 656 34 142 169 564 217 679 202 491 482 980 766 1335 147 183 223 275 245
295 12 11 54 56 93 100 79 88 348 341 458 430 296 239 636 466 905 605 47 24
108 55 135 70 112 59 456 206 600 257 190 66 553 170 665 189 14 3 39 9 55 14
96 28 451 81 710 105 134 12 771 13 980 0z m-2924 -4835 c7 -33 6 -57 -5 -90
-8 -25 -14 -38 -15 -30 -1 8 -15 23 -31 32 -28 16 -30 16 -40 0 -17 -27 -2 22
33 107 33 82 37 81 58 -19z m380 -305 c18 -44 19 -58 10 -150 -5 -55 -13 -154
-17 -220 l-7 -120 -18 55 c-10 30 -18 71 -18 90 -1 19 -8 48 -16 64 -18 33
-19 39 -5 31 6 -3 7 1 4 9 -3 9 -10 14 -14 11 -4 -3 -4 10 0 29 15 66 10 241
-8 280 -18 37 -38 50 -28 18 4 -12 -1 -26 -14 -37 -11 -10 -20 -29 -20 -42 0
-12 -5 -23 -11 -23 -19 0 -36 25 -35 52 1 14 -2 24 -7 21 -10 -6 3 49 14 62 5
5 9 14 9 20 0 5 -5 3 -11 -5 -8 -12 -10 -10 -5 9 5 23 4 23 -12 7 -9 -9 -17
-30 -18 -47 -1 -17 -7 -34 -12 -38 -7 -4 -8 -12 -2 -21 6 -8 10 -19 9 -25 0
-5 -9 7 -20 28 -14 27 -17 42 -10 51 5 6 13 27 16 46 3 19 10 37 16 38 5 2 9
10 9 17 0 17 48 29 64 16 9 -7 16 -4 26 9 13 18 18 12 63 -83 27 -56 58 -124
68 -152z m-177 -81 c3 -8 2 -12 -4 -9 -6 3 -10 10 -10 16 0 14 7 11 14 -7z
m57 -110 c11 -26 18 -49 16 -51 -2 -2 -14 19 -25 47 -11 27 -19 50 -16 50 3 0
14 -21 25 -46z m59 -128 c0 -12 -5 -7 -19 24 -11 24 -11 24 3 6 9 -11 16 -24
16 -30z m-1833 -1298 c-3 -7 -5 -2 -5 12 0 14 2 19 5 13 2 -7 2 -19 0 -25z
m-10 -40 c-3 -8 -6 -5 -6 6 -1 11 2 17 5 13 3 -3 4 -12 1 -19z m23 -1338 c-6
-11 -13 -20 -16 -20 -2 0 0 9 6 20 6 11 13 20 16 20 2 0 0 -9 -6 -20z m-30
-54 c0 -2 -8 -10 -17 -17 -16 -13 -17 -12 -4 4 13 16 21 21 21 13z m-140 -200
c0 -2 -8 -10 -17 -17 -16 -13 -17 -12 -4 4 13 16 21 21 21 13z m-40 -49 c0 -2
-10 -12 -22 -23 l-23 -19 19 23 c18 21 26 27 26 19z m-348 -51 c7 4 8 2 4 -4
-4 -6 9 -34 29 -62 19 -27 33 -50 30 -50 -9 0 -85 109 -84 122 0 10 2 10 6 0
2 -6 10 -9 15 -6z m308 1 c0 -2 -15 -16 -32 -33 l-33 -29 29 33 c28 30 36 37
36 29z m-70 -70 c0 -2 -12 -14 -27 -28 l-28 -24 24 28 c23 25 31 32 31 24z
m-140 -87 c12 -16 19 -30 16 -30 -2 0 -14 14 -26 30 -12 17 -19 30 -16 30 2 0
14 -13 26 -30z m70 17 c0 -2 -10 -12 -22 -23 l-23 -19 19 23 c18 21 26 27 26
19z m2503 -1027 c68 -203 90 -374 77 -595 -9 -145 -29 -305 -40 -305 -22 0
-226 79 -378 145 -57 26 -61 29 -47 45 8 9 15 21 15 27 0 6 7 16 15 23 22 18
78 124 120 225 76 183 111 395 103 625 l-5 128 53 -106 c29 -59 68 -154 87
-212z"/>
<path d="M8652 10064 c-119 -31 -331 -151 -392 -220 -35 -41 -75 -115 -85
-162 -18 -86 47 -196 149 -250 47 -25 60 -27 166 -27 97 0 124 4 174 24 107
43 184 140 187 236 l1 40 13 -40 c16 -48 19 -134 5 -169 -16 -44 -87 -112
-130 -126 -22 -7 -40 -16 -40 -20 0 -12 56 -58 125 -103 119 -76 133 -100 142
-249 3 -53 9 -95 13 -93 8 5 36 110 50 189 6 39 26 86 56 137 33 57 47 92 50
131 5 48 2 59 -31 113 -21 33 -44 75 -51 93 -12 28 -12 32 0 32 36 0 33 158
-5 274 -55 166 -210 241 -397 190z m52 -208 c-42 -19 -81 -62 -100 -113 -13
-33 -14 -51 -6 -89 6 -27 10 -50 8 -51 -2 -3 -147 34 -151 39 -7 8 35 112 61
149 36 53 91 79 164 78 55 0 55 0 24 -13z"/>
<path d="M6450 9634 c0 -4 15 -23 33 -44 17 -20 53 -66 79 -102 89 -126 197
-187 346 -196 118 -7 281 28 195 41 -91 15 -139 45 -200 125 -60 80 -74 83
-49 11 8 -24 13 -45 12 -47 -2 -2 -21 7 -43 21 -60 38 -373 197 -373 191z"/>
<path d="M7542 9441 c-24 -16 -42 -30 -40 -32 2 -2 -18 -31 -43 -64 -25 -33
-54 -72 -64 -87 -29 -47 -11 -31 25 20 18 26 65 80 104 120 39 39 68 72 66 72
-3 0 -24 -13 -48 -29z"/>
<path d="M5818 9416 l24 -13 -34 -12 c-89 -34 -175 -74 -198 -91 l-25 -20 60
-1 c33 -1 67 -1 75 0 128 16 252 -1 359 -51 l46 -21 -32 -7 c-123 -28 -223
-162 -303 -405 -18 -55 -60 -149 -94 -209 -33 -61 -73 -137 -88 -170 -15 -34
-28 -57 -28 -52 0 5 -10 0 -23 -12 -13 -12 -27 -19 -32 -15 -4 5 -5 3 -2 -3 4
-6 -6 -29 -21 -50 -16 -22 -31 -47 -35 -56 -3 -10 -11 -18 -17 -18 -6 0 -9 3
-7 8 7 11 20 232 13 232 -3 0 -9 -15 -15 -32 -5 -18 -25 -78 -45 -133 -36 -98
-175 -525 -200 -615 -7 -25 -17 -54 -21 -65 -8 -18 -7 -18 8 -6 9 7 17 19 17
26 0 19 94 170 141 227 24 28 70 68 101 89 31 20 55 39 52 42 -3 2 10 14 29
26 19 11 54 42 79 68 62 67 157 153 193 175 18 11 24 18 14 18 -39 0 -193 -32
-220 -45 -16 -9 -29 -14 -29 -11 0 44 152 220 238 274 55 36 97 46 246 62 60
6 145 23 189 37 74 23 86 31 151 96 39 40 87 92 106 115 25 31 45 46 70 51 34
7 35 8 41 61 3 30 13 71 22 92 19 43 15 48 -58 72 -28 9 -80 41 -117 71 -75
61 -88 62 -31 3 20 -21 32 -38 26 -38 -10 0 -83 72 -136 135 -47 55 -42 19 8
-60 19 -30 19 -30 0 -14 -11 9 -46 35 -78 58 -32 23 -55 47 -51 52 3 6 13 3
22 -8 10 -10 26 -25 36 -33 25 -19 19 -7 -36 67 -45 62 -66 78 -37 28 33 -56
12 -66 -48 -23 -26 20 -67 45 -89 56 -50 25 -178 62 -214 62 l-25 -1 23 -13z
m288 -461 c34 -51 -15 -107 -93 -107 -45 0 -48 5 -33 43 35 83 94 113 126 64z
m-109 -295 c7 0 13 -4 13 -8 0 -7 -95 -6 -122 1 -3 1 0 17 8 35 l14 34 37 -31
c21 -17 43 -31 50 -31z"/>
<path d="M6065 9390 c10 -11 20 -20 23 -20 3 0 -3 9 -13 20 -10 11 -20 20 -23
20 -3 0 3 -9 13 -20z"/>
<path d="M7440 9380 c-19 -11 -32 -19 -29 -20 11 0 79 30 79 35 0 9 -14 5 -50
-15z"/>
<path d="M6587 9269 c7 -7 15 -10 18 -7 3 3 -2 9 -12 12 -14 6 -15 5 -6 -5z"/>
<path d="M8143 9178 c-24 -12 -39 -56 -24 -71 15 -15 58 7 66 34 10 30 -13 50
-42 37z"/>
<path d="M10319 9171 c-8 -10 -96 -120 -197 -245 -101 -125 -215 -269 -254
-319 -40 -51 -120 -153 -178 -227 -167 -213 -422 -550 -416 -550 3 0 50 35
103 78 112 90 448 355 521 410 26 20 119 93 206 162 87 69 173 136 191 150 18
14 96 74 173 135 l141 109 -21 36 c-59 96 -218 280 -243 280 -7 0 -19 -8 -26
-19z"/>
<path d="M7872 9035 c-31 -26 -46 -61 -32 -70 5 -3 25 1 44 9 35 15 56 52 41
75 -10 16 -21 13 -53 -14z"/>
<path d="M7347 9000 c-14 -23 -22 -38 -18 -35 5 3 12 0 14 -5 3 -6 4 -5 3 2
-2 7 6 26 17 41 10 16 17 30 15 33 -3 2 -16 -14 -31 -36z"/>
<path d="M8332 8979 c-31 -12 -48 -58 -28 -77 13 -13 18 -11 40 11 25 25 34
61 19 70 -5 3 -18 1 -31 -4z"/>
<path d="M8052 8847 c-12 -13 -25 -37 -28 -55 l-6 -31 33 9 c19 6 35 10 36 10
6 0 33 61 33 75 0 23 -43 18 -68 -8z"/>
<path d="M8885 8792 c-173 -133 -549 -553 -913 -1020 -23 -30 -42 -50 -42 -45
0 5 11 43 25 83 14 41 24 78 22 83 -1 5 -15 -9 -30 -30 -28 -41 -130 -141
-322 -318 -179 -165 -314 -339 -398 -515 -83 -173 -99 -364 -42 -505 55 -137
244 -286 445 -351 74 -23 106 -28 248 -32 l162 -4 0 -42 c0 -101 134 -142 310
-96 83 22 166 25 223 9 41 -11 41 -12 27 -40 -14 -24 6 -25 58 -3 25 11 60 15
107 13 164 -6 236 7 337 57 109 55 158 128 161 237 1 77 -27 136 -81 171 l-37
23 -8 -31 c-19 -71 -94 -110 -243 -127 -81 -9 -115 -8 -198 6 -177 28 -214 37
-247 57 l-31 19 7 72 c13 141 36 207 70 207 40 0 112 -113 154 -242 16 -48 40
-55 90 -26 l40 23 36 -19 c31 -17 41 -18 69 -8 18 7 41 12 52 12 17 0 134 78
134 90 0 3 -26 13 -58 22 -84 26 -84 25 -67 88 22 82 20 94 -10 65 -31 -32
-67 -32 -168 -1 -148 46 -302 172 -360 294 -31 64 -32 72 -32 197 0 126 1 133
34 210 50 115 116 220 313 497 227 319 233 328 237 371 1 5 6 5 13 1 6 -4 8
-3 5 4 -4 5 2 32 14 59 60 139 80 340 42 423 -20 45 -69 111 -81 109 -4 0 -34
-21 -67 -47z m-1262 -1949 c-7 -2 -19 -2 -25 0 -7 3 -2 5 12 5 14 0 19 -2 13
-5z m317 -139 c0 -2 -9 0 -20 6 -11 6 -20 13 -20 16 0 2 9 0 20 -6 11 -6 20
-13 20 -16z m31 -21 c13 -16 12 -17 -3 -4 -10 7 -18 15 -18 17 0 8 8 3 21 -13z
m40 -30 c13 -16 12 -17 -3 -4 -10 7 -18 15 -18 17 0 8 8 3 21 -13z m134 -96
c6 -5 -1 -4 -13 3 -21 10 -23 9 -20 -7 2 -10 15 -20 33 -24 26 -6 23 -7 -16
-8 -25 0 -75 -3 -110 -6 -58 -4 -60 -4 -18 4 52 10 100 32 82 38 -7 3 -9 11
-6 20 4 9 -5 24 -23 40 -16 14 -4 8 26 -13 30 -21 60 -42 65 -47z m-257 -29
c34 -7 62 -15 62 -19 0 -10 -108 10 -143 26 -26 12 -27 14 -7 10 14 -3 53 -11
88 -17z"/>
<path d="M7776 8700 c-26 -17 -76 -83 -76 -102 0 -18 80 31 103 63 43 60 31
76 -27 39z"/>
<path d="M8208 8621 c-27 -21 -56 -87 -44 -99 4 -3 23 10 42 29 27 27 35 43
32 63 l-3 28 -27 -21z"/>
<path d="M7943 8468 c-42 -45 -63 -79 -63 -101 0 -16 4 -15 36 9 19 15 44 44
55 65 34 67 21 79 -28 27z"/>
<path d="M7110 8425 c-7 -9 -11 -17 -9 -20 3 -2 10 5 17 15 14 24 10 26 -8 5z"/>
<path d="M10800 8045 c-950 -362 -1556 -597 -1570 -612 -6 -6 48 -1 440 42
706 79 945 104 1194 127 84 8 130 16 133 24 14 37 -51 432 -75 456 -4 3 -59
-13 -122 -37z"/>
<path d="M3800 7733 c-19 -9 -38 -15 -43 -14 -4 0 -6 -17 -5 -39 l3 -41 28 31
c15 17 25 35 22 40 -3 6 0 8 7 5 7 -3 19 4 26 15 15 24 8 24 -38 3z m-20 -48
c-7 -9 -15 -13 -19 -10 -3 3 1 10 9 15 21 14 24 12 10 -5z"/>
<path d="M3686 7644 c-20 -21 -36 -40 -36 -44 0 -3 -14 -17 -32 -30 -20 -15
-29 -18 -26 -8 7 16 -25 19 -39 3 -5 -4 -2 -5 5 -1 8 5 12 -1 12 -18 0 -14 5
-26 10 -26 6 0 10 -5 10 -11 0 -6 -8 -9 -18 -7 -15 4 -18 -1 -18 -28 0 -20 3
-29 8 -21 5 9 8 7 8 -4 0 -9 7 -22 15 -29 19 -16 19 -7 -1 32 -15 28 -15 30 0
25 9 -4 16 -1 16 5 0 6 3 8 6 5 4 -4 1 -14 -7 -24 -12 -15 -12 -16 3 -10 15 5
17 1 14 -23 -5 -47 23 -22 49 43 20 47 21 56 8 61 -23 9 -30 7 -37 -10 -3 -8
-2 -12 4 -9 6 3 10 2 10 -3 0 -20 -27 -19 -39 0 -10 16 -10 18 0 12 9 -5 10
-2 6 9 -8 21 28 44 37 24 4 -8 5 -7 5 3 -3 48 12 63 34 35 5 -5 5 0 2 13 -8
29 23 71 37 50 5 -9 8 -10 8 -1 0 26 -21 21 -54 -13z"/>
<path d="M3115 7603 c-82 -45 -111 -68 -162 -126 -71 -82 -213 -270 -208 -275
2 -2 49 33 104 77 56 44 110 85 120 91 15 8 141 145 249 273 24 27 4 20 -103
-40z"/>
<path d="M3594 7618 l-19 -23 23 19 c21 18 27 26 19 26 -2 0 -12 -10 -23 -22z"/>
<path d="M3281 7185 c-41 -119 -152 -315 -279 -490 -40 -55 -192 -218 -198
-212 -5 5 65 411 75 437 13 34 52 192 49 195 -6 6 -123 -86 -215 -168 -50 -45
-109 -98 -131 -117 -62 -55 -357 -393 -403 -462 -58 -88 -58 -129 1 -224 l44
-72 20 62 c12 34 37 88 56 120 l35 57 7 -61 c19 -169 97 -358 208 -505 69 -91
207 -245 220 -245 4 0 2 24 -6 53 -25 95 -67 353 -55 341 13 -13 37 -114 30
-125 -4 -7 -4 -20 0 -28 5 -9 6 -22 3 -30 -3 -8 0 -11 7 -7 6 4 11 0 11 -11 1
-17 1 -17 11 -1 7 13 5 27 -6 50 l-16 33 20 -25 c11 -14 34 -52 52 -85 31 -59
199 -316 238 -365 l21 -25 0 90 1 90 23 -60 c13 -33 38 -89 55 -125 34 -68
162 -269 172 -270 9 0 40 119 46 178 3 29 8 50 10 48 11 -11 53 -246 53 -298
l0 -57 33 6 c51 10 88 32 142 88 61 63 104 135 149 246 50 121 67 214 73 385
11 309 -61 542 -288 925 -67 113 -170 320 -184 369 -3 14 -12 39 -20 55 -7 17
-20 80 -30 140 -9 61 -17 117 -19 125 -1 8 -8 -3 -15 -25z"/>
<path d="M4537 7063 c-4 -43 -9 -100 -13 -128 -7 -50 -7 -50 13 -32 14 12 23
36 27 77 7 62 -1 160 -14 160 -4 0 -10 -35 -13 -77z"/>
<path d="M9320 7103 c8 -3 69 -36 135 -73 66 -37 255 -143 420 -235 165 -92
336 -189 380 -215 44 -26 105 -61 135 -77 30 -17 109 -62 175 -100 66 -38 127
-72 136 -75 13 -5 26 14 62 86 54 109 123 306 115 327 -10 26 -957 253 -1502
359 -53 11 -80 12 -56 3z"/>
<path d="M7380 5564 c-116 -22 -177 -42 -254 -82 -79 -40 -108 -63 -221 -177
-154 -155 -244 -277 -324 -440 -110 -223 -146 -376 -145 -605 0 -121 5 -177
22 -255 28 -126 42 -142 42 -49 0 148 42 322 117 484 43 93 143 270 153 270 3
0 3 -39 1 -86 -10 -262 67 -498 214 -652 l64 -67 -29 76 c-32 83 -60 223 -60
298 0 73 28 225 55 298 31 87 107 242 119 243 4 0 6 -11 3 -25 -6 -36 11 -197
23 -209 7 -7 10 -4 10 8 0 26 68 166 81 166 6 0 13 -9 16 -20 3 -11 10 -20 15
-20 5 0 6 9 3 20 -10 32 13 196 41 295 27 96 68 185 112 244 78 106 103 128
180 164 129 61 183 70 371 65 91 -3 156 -1 145 3 -10 4 -42 8 -69 8 -28 1
-122 10 -210 21 -156 20 -425 33 -475 24z"/>
<path d="M5503 5258 c-15 -20 -25 -38 -20 -38 3 0 12 11 21 25 17 26 16 35 -1
13z"/>
<path d="M2139 5123 c-13 -16 -12 -17 4 -4 9 7 17 15 17 17 0 8 -8 3 -21 -13z"/>
<path d="M2070 5038 c-24 -44 -38 -78 -31 -74 13 8 84 146 78 152 -2 2 -23
-33 -47 -78z"/>
<path d="M2190 5100 c-9 -6 -10 -10 -3 -10 6 0 15 5 18 10 8 12 4 12 -15 0z"/>
<path d="M2157 5075 c3 -8 9 -12 14 -9 8 5 13 -10 10 -29 -1 -5 3 -6 9 -2 7 4
7 12 0 24 -12 23 -41 36 -33 16z"/>
<path d="M2135 5051 c-3 -5 -2 -12 3 -15 5 -3 9 1 9 9 0 17 -3 19 -12 6z"/>
<path d="M2111 5003 c-7 -8 -11 -16 -8 -19 2 -2 10 2 17 11 17 20 9 27 -9 8z"/>
<path d="M2160 5001 c0 -6 4 -13 10 -16 6 -3 7 1 4 9 -7 18 -14 21 -14 7z"/>
<path d="M1995 4909 c-4 -6 -5 -12 -2 -15 2 -3 7 2 10 11 7 17 1 20 -8 4z"/>
<path d="M2150 4900 c-8 -5 -12 -12 -9 -15 4 -3 12 1 19 10 14 17 11 19 -10 5z"/>
<path d="M2020 4872 c0 -5 7 -9 15 -9 8 0 12 4 9 9 -3 4 -9 8 -15 8 -5 0 -9
-4 -9 -8z"/>
<path d="M1955 4839 c-4 -6 -5 -12 -2 -15 2 -3 7 2 10 11 7 17 1 20 -8 4z"/>
<path d="M1918 4778 c-8 -13 -24 -41 -37 -63 -26 -47 3 -10 37 47 24 40 24 54
0 16z"/>
<path d="M1799 4593 c-13 -16 -12 -17 4 -4 16 13 21 21 13 21 -2 0 -10 -8 -17
-17z"/>
<path d="M1929 4493 c-13 -16 -12 -17 4 -4 16 13 21 21 13 21 -2 0 -10 -8 -17
-17z"/>
<path d="M2145 4480 c-3 -5 1 -10 10 -10 9 0 13 5 10 10 -3 6 -8 10 -10 10 -2
0 -7 -4 -10 -10z"/>
<path d="M1871 4418 c-130 -173 -152 -199 -270 -323 -96 -101 -125 -141 -40
-55 123 124 376 430 356 430 -4 0 -24 -24 -46 -52z"/>
<path d="M2045 4280 c-3 -5 -1 -10 4 -10 6 0 11 5 11 10 0 6 -2 10 -4 10 -3 0
-8 -4 -11 -10z"/>
<path d="M1989 4199 c-6 -13 -7 -19 -1 -15 6 3 12 0 15 -6 2 -7 4 -1 4 15 1
33 -3 34 -18 6z"/>
<path d="M2035 4200 c-3 -6 1 -7 9 -4 18 7 21 14 7 14 -6 0 -13 -4 -16 -10z"/>
<path d="M1520 3901 c0 -6 4 -13 10 -16 6 -3 7 1 4 9 -7 18 -14 21 -14 7z"/>
<path d="M6667 3810 c3 -41 23 -162 44 -268 22 -105 39 -205 39 -221 0 -15 11
-77 24 -137 40 -182 50 -302 37 -441 -6 -67 -11 -130 -11 -141 0 -12 -10 -22
-29 -28 -31 -10 -151 -144 -151 -169 0 -22 18 -27 29 -8 8 14 10 15 11 3 0 -9
-9 -22 -19 -29 -16 -12 -17 -16 -6 -28 18 -18 31 -17 15 1 -9 12 -8 15 7 14
10 0 28 3 41 5 12 3 22 2 22 -4 0 -5 -4 -9 -10 -9 -20 0 -10 -37 13 -47 18 -9
31 -4 80 29 32 21 55 43 52 49 -4 5 4 9 17 9 37 0 68 -105 65 -218 -2 -78 1
-99 35 -197 32 -95 42 -109 41 -58 0 6 6 9 13 6 8 -3 14 0 14 6 0 6 -5 11 -11
11 -5 0 -7 5 -4 11 4 6 14 8 22 5 9 -4 11 -2 7 6 -5 8 -2 9 9 5 10 -3 17 -2
17 2 0 5 -6 12 -12 14 -10 4 -10 6 -1 6 18 1 27 -19 14 -32 -18 -18 -13 -31 6
-16 11 10 14 10 9 2 -4 -7 -2 -13 3 -13 6 0 11 8 11 18 0 33 -12 62 -26 62 -8
0 -14 5 -14 10 0 6 3 9 8 8 4 -2 9 2 11 7 2 6 12 16 22 23 13 9 20 27 21 55 1
40 1 41 5 7 5 -35 -5 -116 -33 -288 -9 -52 -14 -96 -11 -98 7 -7 36 162 51
296 30 269 11 532 -59 801 -19 73 -32 135 -29 138 8 8 144 -139 182 -197 l37
-55 7 41 c4 23 11 49 16 59 5 10 15 48 22 84 l13 66 -36 77 c-21 42 -37 80
-37 84 0 10 -105 111 -191 184 -198 170 -323 338 -390 523 l-18 50 6 -75z
m470 -1362 c-3 -8 -6 -5 -6 6 -1 11 2 17 5 13 3 -3 4 -12 1 -19z m-379 -136
c-9 -10 -13 -10 -19 0 -4 7 -3 18 3 26 9 10 13 10 19 0 4 -7 3 -18 -3 -26z
m389 -24 c-3 -8 -6 -5 -6 6 -1 11 2 17 5 13 3 -3 4 -12 1 -19z"/>
<path d="M6471 2585 c0 -11 4 -38 8 -60 l9 -40 0 40 c0 22 -3 49 -8 60 l-9 20
0 -20z"/>
<path d="M6493 2425 c0 -22 2 -30 4 -17 2 12 2 30 0 40 -3 9 -5 -1 -4 -23z"/>
<path d="M6600 2351 c0 -6 4 -13 10 -16 6 -3 7 1 4 9 -7 18 -14 21 -14 7z"/>
<path d="M6678 2301 c12 -10 18 -21 15 -25 -4 -4 0 -4 10 0 24 9 21 19 -8 32
-37 17 -41 15 -17 -7z"/>
<path d="M4831 2064 c0 -11 3 -14 6 -6 3 7 2 16 -1 19 -3 4 -6 -2 -5 -13z"/>
<path d="M7107 2030 c-3 -11 -1 -20 4 -20 5 0 9 9 9 20 0 11 -2 20 -4 20 -2 0
-6 -9 -9 -20z"/>
<path d="M7086 1905 c-3 -8 -1 -15 4 -15 6 0 10 7 10 15 0 8 -2 15 -4 15 -2 0
-6 -7 -10 -15z"/>
<path d="M7020 1885 c0 -8 2 -15 4 -15 2 0 6 7 10 15 3 8 1 15 -4 15 -6 0 -10
-7 -10 -15z"/>
<path d="M6386 1875 c-9 -26 -7 -32 5 -12 6 10 9 21 6 23 -2 3 -7 -2 -11 -11z"/>
<path d="M6357 1798 c-9 -23 -15 -43 -13 -45 2 -2 11 15 20 38 9 23 15 43 13
45 -2 2 -11 -15 -20 -38z"/>
<path d="M7081 1704 c0 -11 3 -14 6 -6 3 7 2 16 -1 19 -3 4 -6 -2 -5 -13z"/>
<path d="M7071 1664 c0 -11 3 -14 6 -6 3 7 2 16 -1 19 -3 4 -6 -2 -5 -13z"/>
<path d="M6223 1533 c-9 -16 -30 -46 -47 -68 l-30 -40 32 29 c17 16 40 47 51
68 22 44 19 50 -6 11z"/>
<path d="M4076 6911 c-3 -5 1 -11 9 -14 9 -4 12 -1 8 9 -6 16 -10 17 -17 5z"/>
</g>
</svg>
